<svg width="1400" height="2110" viewBox="0 0 1400 2110" xmlns="http://www.w3.org/2000/svg" role="img">
<title>AI Kubernetes Copilot - AIOps Platform Architecture</title>
<desc>Layered architecture diagram showing data flow from Kubernetes cluster through monitoring, AI analysis, RAG knowledge layer, local LLM, to the AI Copilot and Streamlit dashboard.</desc>
<defs>
<marker id="arrowhead" viewBox="0 0 10 10" refX="8" refY="5" markerWidth="7" markerHeight="7" orient="auto-start-reverse">
<path d="M1 1L9 5L1 9Z" fill="#455A64"/>
</marker>
</defs>
<rect x="0" y="0" width="1400" height="2110" fill="#FAFAFA"/>
<rect x="0" y="0" width="1400" height="130" fill="#0B1F3A"/><text x="700.0" y="52" font-family="Arial, Helvetica, sans-serif" font-size="28" font-weight="800" fill="#FFFFFF" text-anchor="middle">AI Kubernetes Copilot</text><text x="700.0" y="84" font-family="Arial, Helvetica, sans-serif" font-size="16" font-weight="500" fill="#90CAF9" text-anchor="middle">AIOps Platform Architecture</text><text x="700.0" y="110" font-family="Arial, Helvetica, sans-serif" font-size="12" fill="#B0BEC5" text-anchor="middle">Kubernetes  &#8594;  Monitoring  &#8594;  AI Analysis  &#8594;  RAG  &#8594;  LLM  &#8594;  Dashboard</text>
<rect x="60" y="130" width="1280" height="90" rx="12" fill="#E3F2FD" stroke="#1565C0" stroke-width="1.5"/><rect x="60" y="130" width="10" height="90" rx="5" fill="#1565C0"/><text x="92" y="167.0" font-family="Arial, Helvetica, sans-serif" font-size="17" font-weight="700" fill="#0D47A1">01</text><text x="92" y="189.0" font-family="Arial, Helvetica, sans-serif" font-size="15" font-weight="700" fill="#0D47A1">Kubernetes Cluster</text><rect x="509.6" y="158.0" width="90.0" height="34" rx="8" fill="#FFFFFF" stroke="#1565C0" stroke-width="1"/><text x="554.6" y="179.0" font-family="Arial, Helvetica, sans-serif" font-size="12.5" fill="#0D47A1" text-anchor="middle">Nodes</text><rect x="609.6" y="158.0" width="90.0" height="34" rx="8" fill="#FFFFFF" stroke="#1565C0" stroke-width="1"/><text x="654.6" y="179.0" font-family="Arial, Helvetica, sans-serif" font-size="12.5" fill="#0D47A1" text-anchor="middle">Pods</text><rect x="709.6" y="158.0" width="117.2" height="34" rx="8" fill="#FFFFFF" stroke="#1565C0" stroke-width="1"/><text x="768.2" y="179.0" font-family="Arial, Helvetica, sans-serif" font-size="12.5" fill="#0D47A1" text-anchor="middle">Deployments</text><rect x="836.9" y="158.0" width="94.0" height="34" rx="8" fill="#FFFFFF" stroke="#1565C0" stroke-width="1"/><text x="883.9" y="179.0" font-family="Arial, Helvetica, sans-serif" font-size="12.5" fill="#0D47A1" text-anchor="middle">Services</text><rect x="940.9" y="158.0" width="109.5" height="34" rx="8" fill="#FFFFFF" stroke="#1565C0" stroke-width="1"/><text x="995.6" y="179.0" font-family="Arial, Helvetica, sans-serif" font-size="12.5" fill="#0D47A1" text-anchor="middle">Namespaces</text><rect x="1060.4" y="158.0" width="90.0" height="34" rx="8" fill="#FFFFFF" stroke="#1565C0" stroke-width="1"/><text x="1105.4" y="179.0" font-family="Arial, Helvetica, sans-serif" font-size="12.5" fill="#0D47A1" text-anchor="middle">Events</text><line x1="700.0" y1="226" x2="700.0" y2="252" stroke="#455A64" stroke-width="2.5" marker-end="url(#arrowhead)"/><rect x="60" y="266" width="1280" height="90" rx="12" fill="#E3F2FD" stroke="#1565C0" stroke-width="1.5"/><rect x="60" y="266" width="10" height="90" rx="5" fill="#1565C0"/><text x="92" y="303.0" font-family="Arial, Helvetica, sans-serif" font-size="17" font-weight="700" fill="#0D47A1">02</text><text x="92" y="325.0" font-family="Arial, Helvetica, sans-serif" font-size="15" font-weight="700" fill="#0D47A1">Kubernetes Tool Layer</text><rect x="392.9" y="294.0" width="132.8" height="34" rx="8" fill="#FFFFFF" stroke="#1565C0" stroke-width="1"/><text x="459.2" y="315.0" font-family="Arial, Helvetica, sans-serif" font-size="12.5" fill="#0D47A1" text-anchor="middle">Pod Discovery</text><rect x="535.6" y="294.0" width="140.5" height="34" rx="8" fill="#FFFFFF" stroke="#1565C0" stroke-width="1"/><text x="605.9" y="315.0" font-family="Arial, Helvetica, sans-serif" font-size="12.5" fill="#0D47A1" text-anchor="middle">Log Collection</text><rect x="686.1" y="294.0" width="156.0" height="34" rx="8" fill="#FFFFFF" stroke="#1565C0" stroke-width="1"/><text x="764.1" y="315.0" font-family="Arial, Helvetica, sans-serif" font-size="12.5" fill="#0D47A1" text-anchor="middle">Event Collection</text><rect x="852.1" y="294.0" width="179.2" height="34" rx="8" fill="#FFFFFF" stroke="#1565C0" stroke-width="1"/><text x="941.8" y="315.0" font-family="Arial, Helvetica, sans-serif" font-size="12.5" fill="#0D47A1" text-anchor="middle">Deployment Analysis</text><rect x="1041.4" y="294.0" width="225.8" height="34" rx="8" fill="#FFFFFF" stroke="#1565C0" stroke-width="1"/><text x="1154.2" y="315.0" font-family="Arial, Helvetica, sans-serif" font-size="12.5" fill="#0D47A1" text-anchor="middle">Cluster Health Collection</text><line x1="700.0" y1="362" x2="700.0" y2="388" stroke="#455A64" stroke-width="2.5" marker-end="url(#arrowhead)"/><rect x="60" y="402" width="1280" height="90" rx="12" fill="#FFF3E0" stroke="#EF6C00" stroke-width="1.5"/><rect x="60" y="402" width="10" height="90" rx="5" fill="#EF6C00"/><text x="92" y="439.0" font-family="Arial, Helvetica, sans-serif" font-size="17" font-weight="700" fill="#E65100">03</text><text x="92" y="461.0" font-family="Arial, Helvetica, sans-serif" font-size="15" font-weight="700" fill="#E65100">Prometheus Monitoring</text><rect x="549.5" y="430.0" width="117.2" height="34" rx="8" fill="#FFFFFF" stroke="#EF6C00" stroke-width="1"/><text x="608.1" y="451.0" font-family="Arial, Helvetica, sans-serif" font-size="12.5" fill="#E65100" text-anchor="middle">CPU Metrics</text><rect x="676.8" y="430.0" width="140.5" height="34" rx="8" fill="#FFFFFF" stroke="#EF6C00" stroke-width="1"/><text x="747.0" y="451.0" font-family="Arial, Helvetica, sans-serif" font-size="12.5" fill="#E65100" text-anchor="middle">Memory Metrics</text><rect x="827.2" y="430.0" width="125.0" height="34" rx="8" fill="#FFFFFF" stroke="#EF6C00" stroke-width="1"/><text x="889.8" y="451.0" font-family="Arial, Helvetica, sans-serif" font-size="12.5" fill="#E65100" text-anchor="middle">Node Metrics</text><rect x="962.2" y="430.0" width="148.2" height="34" rx="8" fill="#FFFFFF" stroke="#EF6C00" stroke-width="1"/><text x="1036.4" y="451.0" font-family="Arial, Helvetica, sans-serif" font-size="12.5" fill="#E65100" text-anchor="middle">Cluster Metrics</text><line x1="700.0" y1="498" x2="700.0" y2="524" stroke="#455A64" stroke-width="2.5" marker-end="url(#arrowhead)"/><rect x="60" y="538" width="1280" height="90" rx="12" fill="#FFF3E0" stroke="#EF6C00" stroke-width="1.5"/><rect x="60" y="538" width="10" height="90" rx="5" fill="#EF6C00"/><text x="92" y="575.0" font-family="Arial, Helvetica, sans-serif" font-size="17" font-weight="700" fill="#E65100">04</text><text x="92" y="597.0" font-family="Arial, Helvetica, sans-serif" font-size="15" font-weight="700" fill="#E65100">Grafana Observability</text><rect x="609.2" y="566.0" width="109.5" height="34" rx="8" fill="#FFFFFF" stroke="#EF6C00" stroke-width="1"/><text x="664.0" y="587.0" font-family="Arial, Helvetica, sans-serif" font-size="12.5" fill="#E65100" text-anchor="middle">Dashboards</text><rect x="728.8" y="566.0" width="132.8" height="34" rx="8" fill="#FFFFFF" stroke="#EF6C00" stroke-width="1"/><text x="795.1" y="587.0" font-family="Arial, Helvetica, sans-serif" font-size="12.5" fill="#E65100" text-anchor="middle">Visualization</text><rect x="871.5" y="566.0" width="179.2" height="34" rx="8" fill="#FFFFFF" stroke="#EF6C00" stroke-width="1"/><text x="961.1" y="587.0" font-family="Arial, Helvetica, sans-serif" font-size="12.5" fill="#E65100" text-anchor="middle">Monitoring Insights</text><line x1="700.0" y1="634" x2="700.0" y2="660" stroke="#455A64" stroke-width="2.5" marker-end="url(#arrowhead)"/><rect x="60" y="674" width="1280" height="90" rx="12" fill="#F3E5F5" stroke="#7B1FA2" stroke-width="1.5"/><rect x="60" y="674" width="10" height="90" rx="5" fill="#7B1FA2"/><text x="92" y="711.0" font-family="Arial, Helvetica, sans-serif" font-size="17" font-weight="700" fill="#4A148C">05</text><text x="92" y="733.0" font-family="Arial, Helvetica, sans-serif" font-size="15" font-weight="700" fill="#4A148C">Cluster Analyzer Engine</text><rect x="464.2" y="702.0" width="125.0" height="34" rx="8" fill="#FFFFFF" stroke="#7B1FA2" stroke-width="1"/><text x="526.8" y="723.0" font-family="Arial, Helvetica, sans-serif" font-size="12.5" fill="#4A148C" text-anchor="middle">CPU Analysis</text><rect x="599.2" y="702.0" width="148.2" height="34" rx="8" fill="#FFFFFF" stroke="#7B1FA2" stroke-width="1"/><text x="673.4" y="723.0" font-family="Arial, Helvetica, sans-serif" font-size="12.5" fill="#4A148C" text-anchor="middle">Memory Analysis</text><rect x="757.5" y="702.0" width="218.0" height="34" rx="8" fill="#FFFFFF" stroke="#7B1FA2" stroke-width="1"/><text x="866.5" y="723.0" font-family="Arial, Helvetica, sans-serif" font-size="12.5" fill="#4A148C" text-anchor="middle">Health Score Calculation</text><rect x="985.5" y="702.0" width="210.2" height="34" rx="8" fill="#FFFFFF" stroke="#7B1FA2" stroke-width="1"/><text x="1090.6" y="723.0" font-family="Arial, Helvetica, sans-serif" font-size="12.5" fill="#4A148C" text-anchor="middle">Cluster Status Analysis</text><line x1="700.0" y1="770" x2="700.0" y2="796" stroke="#455A64" stroke-width="2.5" marker-end="url(#arrowhead)"/><rect x="60" y="810" width="1280" height="90" rx="12" fill="#F3E5F5" stroke="#7B1FA2" stroke-width="1.5"/><rect x="60" y="810" width="10" height="90" rx="5" fill="#7B1FA2"/><text x="92" y="847.0" font-family="Arial, Helvetica, sans-serif" font-size="17" font-weight="700" fill="#4A148C">06</text><text x="92" y="869.0" font-family="Arial, Helvetica, sans-serif" font-size="15" font-weight="700" fill="#4A148C">Event Analyzer</text><rect x="423.9" y="838.0" width="163.8" height="34" rx="8" fill="#FFFFFF" stroke="#7B1FA2" stroke-width="1"/><text x="505.8" y="859.0" font-family="Arial, Helvetica, sans-serif" font-size="12.5" fill="#4A148C" text-anchor="middle">Kubernetes Events</text><rect x="597.6" y="838.0" width="125.0" height="34" rx="8" fill="#FFFFFF" stroke="#7B1FA2" stroke-width="1"/><text x="660.1" y="859.0" font-family="Arial, Helvetica, sans-serif" font-size="12.5" fill="#4A148C" text-anchor="middle">Pod Failures</text><rect x="732.6" y="838.0" width="156.0" height="34" rx="8" fill="#FFFFFF" stroke="#7B1FA2" stroke-width="1"/><text x="810.6" y="859.0" font-family="Arial, Helvetica, sans-serif" font-size="12.5" fill="#4A148C" text-anchor="middle">ImagePullBackOff</text><rect x="898.6" y="838.0" width="156.0" height="34" rx="8" fill="#FFFFFF" stroke="#7B1FA2" stroke-width="1"/><text x="976.6" y="859.0" font-family="Arial, Helvetica, sans-serif" font-size="12.5" fill="#4A148C" text-anchor="middle">CrashLoopBackOff</text><rect x="1064.6" y="838.0" width="171.5" height="34" rx="8" fill="#FFFFFF" stroke="#7B1FA2" stroke-width="1"/><text x="1150.4" y="859.0" font-family="Arial, Helvetica, sans-serif" font-size="12.5" fill="#4A148C" text-anchor="middle">Severity Detection</text><line x1="700.0" y1="906" x2="700.0" y2="932" stroke="#455A64" stroke-width="2.5" marker-end="url(#arrowhead)"/><rect x="60" y="946" width="1280" height="90" rx="12" fill="#F3E5F5" stroke="#7B1FA2" stroke-width="1.5"/><rect x="60" y="946" width="10" height="90" rx="5" fill="#7B1FA2"/><text x="92" y="983.0" font-family="Arial, Helvetica, sans-serif" font-size="17" font-weight="700" fill="#4A148C">07</text><text x="92" y="1005.0" font-family="Arial, Helvetica, sans-serif" font-size="15" font-weight="700" fill="#4A148C">Incident Detector</text><rect x="506.9" y="974.0" width="171.5" height="34" rx="8" fill="#FFFFFF" stroke="#7B1FA2" stroke-width="1"/><text x="592.6" y="995.0" font-family="Arial, Helvetica, sans-serif" font-size="12.5" fill="#4A148C" text-anchor="middle">Critical Incidents</text><rect x="688.4" y="974.0" width="140.5" height="34" rx="8" fill="#FFFFFF" stroke="#7B1FA2" stroke-width="1"/><text x="758.6" y="995.0" font-family="Arial, Helvetica, sans-serif" font-size="12.5" fill="#4A148C" text-anchor="middle">High Incidents</text><rect x="838.9" y="974.0" width="156.0" height="34" rx="8" fill="#FFFFFF" stroke="#7B1FA2" stroke-width="1"/><text x="916.9" y="995.0" font-family="Arial, Helvetica, sans-serif" font-size="12.5" fill="#4A148C" text-anchor="middle">Medium Incidents</text><rect x="1004.9" y="974.0" width="148.2" height="34" rx="8" fill="#FFFFFF" stroke="#7B1FA2" stroke-width="1"/><text x="1079.0" y="995.0" font-family="Arial, Helvetica, sans-serif" font-size="12.5" fill="#4A148C" text-anchor="middle">Risk Assessment</text><line x1="700.0" y1="1042" x2="700.0" y2="1068" stroke="#455A64" stroke-width="2.5" marker-end="url(#arrowhead)"/><rect x="60" y="1082" width="1280" height="90" rx="12" fill="#F3E5F5" stroke="#7B1FA2" stroke-width="1.5"/><rect x="60" y="1082" width="10" height="90" rx="5" fill="#7B1FA2"/><text x="92" y="1119.0" font-family="Arial, Helvetica, sans-serif" font-size="17" font-weight="700" fill="#4A148C">08</text><text x="92" y="1141.0" font-family="Arial, Helvetica, sans-serif" font-size="15" font-weight="700" fill="#4A148C">AI RCA Engine</text><rect x="499.1" y="1110.0" width="187.0" height="34" rx="8" fill="#FFFFFF" stroke="#7B1FA2" stroke-width="1"/><text x="592.6" y="1131.0" font-family="Arial, Helvetica, sans-serif" font-size="12.5" fill="#4A148C" text-anchor="middle">Root Cause Detection</text><rect x="696.1" y="1110.0" width="148.2" height="34" rx="8" fill="#FFFFFF" stroke="#7B1FA2" stroke-width="1"/><text x="770.2" y="1131.0" font-family="Arial, Helvetica, sans-serif" font-size="12.5" fill="#4A148C" text-anchor="middle">Impact Analysis</text><rect x="854.4" y="1110.0" width="156.0" height="34" rx="8" fill="#FFFFFF" stroke="#7B1FA2" stroke-width="1"/><text x="932.4" y="1131.0" font-family="Arial, Helvetica, sans-serif" font-size="12.5" fill="#4A148C" text-anchor="middle">Resolution Steps</text><rect x="1020.4" y="1110.0" width="140.5" height="34" rx="8" fill="#FFFFFF" stroke="#7B1FA2" stroke-width="1"/><text x="1090.6" y="1131.0" font-family="Arial, Helvetica, sans-serif" font-size="12.5" fill="#4A148C" text-anchor="middle">Best Practices</text><line x1="700.0" y1="1178" x2="700.0" y2="1204" stroke="#455A64" stroke-width="2.5" marker-end="url(#arrowhead)"/><rect x="60" y="1218" width="1280" height="90" rx="12" fill="#F3E5F5" stroke="#7B1FA2" stroke-width="1.5"/><rect x="60" y="1218" width="10" height="90" rx="5" fill="#7B1FA2"/><text x="92" y="1255.0" font-family="Arial, Helvetica, sans-serif" font-size="17" font-weight="700" fill="#4A148C">09</text><text x="92" y="1277.0" font-family="Arial, Helvetica, sans-serif" font-size="15" font-weight="700" fill="#4A148C">AI Remediation Engine</text><rect x="444.9" y="1246.0" width="187.0" height="34" rx="8" fill="#FFFFFF" stroke="#7B1FA2" stroke-width="1"/><text x="538.4" y="1267.0" font-family="Arial, Helvetica, sans-serif" font-size="12.5" fill="#4A148C" text-anchor="middle">Recovery Suggestions</text><rect x="641.9" y="1246.0" width="156.0" height="34" rx="8" fill="#FFFFFF" stroke="#7B1FA2" stroke-width="1"/><text x="719.9" y="1267.0" font-family="Arial, Helvetica, sans-serif" font-size="12.5" fill="#4A148C" text-anchor="middle">Kubernetes Fixes</text><rect x="807.9" y="1246.0" width="210.2" height="34" rx="8" fill="#FFFFFF" stroke="#7B1FA2" stroke-width="1"/><text x="913.0" y="1267.0" font-family="Arial, Helvetica, sans-serif" font-size="12.5" fill="#4A148C" text-anchor="middle">Scaling Recommendations</text><rect x="1028.1" y="1246.0" width="187.0" height="34" rx="8" fill="#FFFFFF" stroke="#7B1FA2" stroke-width="1"/><text x="1121.6" y="1267.0" font-family="Arial, Helvetica, sans-serif" font-size="12.5" fill="#4A148C" text-anchor="middle">Operational Guidance</text><line x1="700.0" y1="1314" x2="700.0" y2="1340" stroke="#455A64" stroke-width="2.5" marker-end="url(#arrowhead)"/><rect x="60" y="1354" width="1280" height="90" rx="12" fill="#ECEFF1" stroke="#455A64" stroke-width="1.5"/><rect x="60" y="1354" width="10" height="90" rx="5" fill="#455A64"/><text x="92" y="1391.0" font-family="Arial, Helvetica, sans-serif" font-size="17" font-weight="700" fill="#263238">10</text><text x="92" y="1413.0" font-family="Arial, Helvetica, sans-serif" font-size="15" font-weight="700" fill="#263238">Incident Storage</text><rect x="553.4" y="1382.0" width="94.0" height="34" rx="8" fill="#FFFFFF" stroke="#455A64" stroke-width="1"/><text x="600.4" y="1403.0" font-family="Arial, Helvetica, sans-serif" font-size="12.5" fill="#263238" text-anchor="middle">ChromaDB</text><rect x="657.4" y="1382.0" width="156.0" height="34" rx="8" fill="#FFFFFF" stroke="#455A64" stroke-width="1"/><text x="735.4" y="1403.0" font-family="Arial, Helvetica, sans-serif" font-size="12.5" fill="#263238" text-anchor="middle">Incident History</text><rect x="823.4" y="1382.0" width="117.2" height="34" rx="8" fill="#FFFFFF" stroke="#455A64" stroke-width="1"/><text x="882.0" y="1403.0" font-family="Arial, Helvetica, sans-serif" font-size="12.5" fill="#263238" text-anchor="middle">RCA Reports</text><rect x="950.6" y="1382.0" width="156.0" height="34" rx="8" fill="#FFFFFF" stroke="#455A64" stroke-width="1"/><text x="1028.6" y="1403.0" font-family="Arial, Helvetica, sans-serif" font-size="12.5" fill="#263238" text-anchor="middle">Timeline Storage</text><line x1="700.0" y1="1450" x2="700.0" y2="1476" stroke="#455A64" stroke-width="2.5" marker-end="url(#arrowhead)"/><rect x="60" y="1490" width="1280" height="90" rx="12" fill="#F3E5F5" stroke="#7B1FA2" stroke-width="1.5"/><rect x="60" y="1490" width="10" height="90" rx="5" fill="#7B1FA2"/><text x="92" y="1527.0" font-family="Arial, Helvetica, sans-serif" font-size="17" font-weight="700" fill="#4A148C">11</text><text x="92" y="1549.0" font-family="Arial, Helvetica, sans-serif" font-size="15" font-weight="700" fill="#4A148C">RAG Knowledge Layer</text><rect x="421.6" y="1518.0" width="225.8" height="34" rx="8" fill="#FFFFFF" stroke="#7B1FA2" stroke-width="1"/><text x="534.5" y="1539.0" font-family="Arial, Helvetica, sans-serif" font-size="12.5" fill="#4A148C" text-anchor="middle">Kubernetes Knowledge Base</text><rect x="657.4" y="1518.0" width="171.5" height="34" rx="8" fill="#FFFFFF" stroke="#7B1FA2" stroke-width="1"/><text x="743.1" y="1539.0" font-family="Arial, Helvetica, sans-serif" font-size="12.5" fill="#4A148C" text-anchor="middle">Incident Documents</text><rect x="838.9" y="1518.0" width="202.5" height="34" rx="8" fill="#FFFFFF" stroke="#7B1FA2" stroke-width="1"/><text x="940.1" y="1539.0" font-family="Arial, Helvetica, sans-serif" font-size="12.5" fill="#4A148C" text-anchor="middle">Troubleshooting Guides</text><rect x="1051.4" y="1518.0" width="187.0" height="34" rx="8" fill="#FFFFFF" stroke="#7B1FA2" stroke-width="1"/><text x="1144.9" y="1539.0" font-family="Arial, Helvetica, sans-serif" font-size="12.5" fill="#4A148C" text-anchor="middle">Historical Incidents</text><line x1="700.0" y1="1586" x2="700.0" y2="1612" stroke="#455A64" stroke-width="2.5" marker-end="url(#arrowhead)"/><rect x="60" y="1626" width="1280" height="90" rx="12" fill="#F3E5F5" stroke="#7B1FA2" stroke-width="1.5"/><rect x="60" y="1626" width="10" height="90" rx="5" fill="#7B1FA2"/><text x="92" y="1663.0" font-family="Arial, Helvetica, sans-serif" font-size="17" font-weight="700" fill="#4A148C">12</text><text x="92" y="1685.0" font-family="Arial, Helvetica, sans-serif" font-size="15" font-weight="700" fill="#4A148C">Ollama Local LLM</text><rect x="483.6" y="1654.0" width="109.5" height="34" rx="8" fill="#FFFFFF" stroke="#7B1FA2" stroke-width="1"/><text x="538.4" y="1675.0" font-family="Arial, Helvetica, sans-serif" font-size="12.5" fill="#4A148C" text-anchor="middle">Phi-3 Mini</text><rect x="603.1" y="1654.0" width="148.2" height="34" rx="8" fill="#FFFFFF" stroke="#7B1FA2" stroke-width="1"/><text x="677.2" y="1675.0" font-family="Arial, Helvetica, sans-serif" font-size="12.5" fill="#4A148C" text-anchor="middle">Local Inference</text><rect x="761.4" y="1654.0" width="171.5" height="34" rx="8" fill="#FFFFFF" stroke="#7B1FA2" stroke-width="1"/><text x="847.1" y="1675.0" font-family="Arial, Helvetica, sans-serif" font-size="12.5" fill="#4A148C" text-anchor="middle">AI Recommendations</text><rect x="942.9" y="1654.0" width="233.5" height="34" rx="8" fill="#FFFFFF" stroke="#7B1FA2" stroke-width="1"/><text x="1059.6" y="1675.0" font-family="Arial, Helvetica, sans-serif" font-size="12.5" fill="#4A148C" text-anchor="middle">Natural Language Responses</text><line x1="700.0" y1="1722" x2="700.0" y2="1748" stroke="#455A64" stroke-width="2.5" marker-end="url(#arrowhead)"/><rect x="60" y="1762" width="1280" height="108" rx="12" fill="#EDE7F6" stroke="#5E35B1" stroke-width="1.5"/><rect x="60" y="1762" width="10" height="108" rx="5" fill="#5E35B1"/><text x="92" y="1808.0" font-family="Arial, Helvetica, sans-serif" font-size="17" font-weight="700" fill="#311B92">13</text><text x="92" y="1830.0" font-family="Arial, Helvetica, sans-serif" font-size="15" font-weight="700" fill="#311B92">AI Kubernetes Copilot</text><rect x="448.8" y="1777.0" width="233.5" height="34" rx="8" fill="#5E35B1" stroke="#5E35B1" stroke-width="1"/><text x="565.5" y="1798.0" font-family="Arial, Helvetica, sans-serif" font-size="12.5" fill="#FFFFFF" text-anchor="middle">Cluster Question Answering</text><rect x="692.2" y="1777.0" width="148.2" height="34" rx="8" fill="#5E35B1" stroke="#5E35B1" stroke-width="1"/><text x="766.4" y="1798.0" font-family="Arial, Helvetica, sans-serif" font-size="12.5" fill="#FFFFFF" text-anchor="middle">RCA Explanation</text><rect x="850.5" y="1777.0" width="202.5" height="34" rx="8" fill="#5E35B1" stroke="#5E35B1" stroke-width="1"/><text x="951.8" y="1798.0" font-family="Arial, Helvetica, sans-serif" font-size="12.5" fill="#FFFFFF" text-anchor="middle">Incident Investigation</text><rect x="1063.0" y="1777.0" width="148.2" height="34" rx="8" fill="#5E35B1" stroke="#5E35B1" stroke-width="1"/><text x="1137.1" y="1798.0" font-family="Arial, Helvetica, sans-serif" font-size="12.5" fill="#FFFFFF" text-anchor="middle">Health Analysis</text><rect x="717.1" y="1821.0" width="225.8" height="34" rx="8" fill="#5E35B1" stroke="#5E35B1" stroke-width="1"/><text x="830.0" y="1842.0" font-family="Arial, Helvetica, sans-serif" font-size="12.5" fill="#FFFFFF" text-anchor="middle">Troubleshooting Assistant</text><line x1="700.0" y1="1876" x2="700.0" y2="1902" stroke="#455A64" stroke-width="2.5" marker-end="url(#arrowhead)"/><rect x="60" y="1916" width="1280" height="108" rx="12" fill="#FFF3E0" stroke="#EF6C00" stroke-width="1.5"/><rect x="60" y="1916" width="10" height="108" rx="5" fill="#EF6C00"/><text x="92" y="1962.0" font-family="Arial, Helvetica, sans-serif" font-size="17" font-weight="700" fill="#E65100">14</text><text x="92" y="1984.0" font-family="Arial, Helvetica, sans-serif" font-size="15" font-weight="700" fill="#E65100">Streamlit Dashboard</text><rect x="392.9" y="1931.0" width="218.0" height="34" rx="8" fill="#FFFFFF" stroke="#EF6C00" stroke-width="1"/><text x="501.9" y="1952.0" font-family="Arial, Helvetica, sans-serif" font-size="12.5" fill="#E65100" text-anchor="middle">Cluster Health Dashboard</text><rect x="620.9" y="1931.0" width="163.8" height="34" rx="8" fill="#FFFFFF" stroke="#EF6C00" stroke-width="1"/><text x="702.8" y="1952.0" font-family="Arial, Helvetica, sans-serif" font-size="12.5" fill="#E65100" text-anchor="middle">AI Analysis Panel</text><rect x="794.6" y="1931.0" width="156.0" height="34" rx="8" fill="#FFFFFF" stroke="#EF6C00" stroke-width="1"/><text x="872.6" y="1952.0" font-family="Arial, Helvetica, sans-serif" font-size="12.5" fill="#E65100" text-anchor="middle">Incident History</text><rect x="960.6" y="1931.0" width="163.8" height="34" rx="8" fill="#FFFFFF" stroke="#EF6C00" stroke-width="1"/><text x="1042.5" y="1952.0" font-family="Arial, Helvetica, sans-serif" font-size="12.5" fill="#E65100" text-anchor="middle">Incident Timeline</text><rect x="1134.4" y="1931.0" width="132.8" height="34" rx="8" fill="#FFFFFF" stroke="#EF6C00" stroke-width="1"/><text x="1200.8" y="1952.0" font-family="Arial, Helvetica, sans-serif" font-size="12.5" fill="#E65100" text-anchor="middle">RCA Generator</text><rect x="618.6" y="1975.0" width="187.0" height="34" rx="8" fill="#FFFFFF" stroke="#EF6C00" stroke-width="1"/><text x="712.1" y="1996.0" font-family="Arial, Helvetica, sans-serif" font-size="12.5" fill="#E65100" text-anchor="middle">PDF Report Generator</text><rect x="815.6" y="1975.0" width="225.8" height="34" rx="8" fill="#FFFFFF" stroke="#EF6C00" stroke-width="1"/><text x="928.5" y="1996.0" font-family="Arial, Helvetica, sans-serif" font-size="12.5" fill="#E65100" text-anchor="middle">AI Copilot Chat Interface</text>
<rect x="60" y="2066" width="16" height="16" rx="3" fill="#E3F2FD" stroke="#1565C0" stroke-width="1.5"/><text x="82" y="2078" font-family="Arial, Helvetica, sans-serif" font-size="12" fill="#37474F">Kubernetes / Infra</text><rect x="257.91999999999996" y="2066" width="16" height="16" rx="3" fill="#FFF3E0" stroke="#EF6C00" stroke-width="1.5"/><text x="279.91999999999996" y="2078" font-family="Arial, Helvetica, sans-serif" font-size="12" fill="#37474F">Monitoring / Observability</text><rect x="515.3599999999999" y="2066" width="16" height="16" rx="3" fill="#F3E5F5" stroke="#7B1FA2" stroke-width="1.5"/><text x="537.3599999999999" y="2078" font-family="Arial, Helvetica, sans-serif" font-size="12" fill="#37474F">AI / Analysis / LLM</text><rect x="720.7199999999999" y="2066" width="16" height="16" rx="3" fill="#ECEFF1" stroke="#455A64" stroke-width="1.5"/><text x="742.7199999999999" y="2078" font-family="Arial, Helvetica, sans-serif" font-size="12" fill="#37474F">Storage</text>
</svg>